<svg width="86" height="76" viewBox="0 0 86 76" fill="none" xmlns="http://www.w3.org/2000/svg">
<path id="Vector" d="M33.25 3.5625V11.875H24.9375C22.9633 11.875 21.375 13.4633 21.375 15.4375V22.5625C21.375 24.5367 22.9633 26.125 24.9375 26.125H33.25V34.4375C33.25 36.4117 34.8383 38 36.8125 38H43.9375C45.9117 38 47.5 36.4117 47.5 34.4375V26.125H55.8125C57.7867 26.125 59.375 24.5367 59.375 22.5625V15.4375C59.375 13.4633 57.7867 11.875 55.8125 11.875H47.5V3.5625C47.5 1.58828 45.9117 0 43.9375 0H36.8125C34.8383 0 33.25 1.58828 33.25 3.5625ZM83.0805 58.2172C85.7227 56.2727 86.2867 52.5617 84.3422 49.9195C82.3977 47.2773 78.6867 46.7133 76.0445 48.6578L58.2766 61.75H40.375C39.0687 61.75 38 60.6813 38 59.375C38 58.0687 39.0687 57 40.375 57H52.25C54.8773 57 57 54.8773 57 52.25C57 49.6227 54.8773 47.5 52.25 47.5H28.7523C24.4328 47.5 20.2469 48.9695 16.8773 51.6562L10.2125 57H4.75C2.12266 57 0 59.1227 0 61.75V71.25C0 73.8773 2.12266 76 4.75 76H52.3242C56.6289 76 60.8297 74.6195 64.3031 72.0664L83.0953 58.2172H83.0805Z" fill="#F8F8F8"/>
</svg>
