<svg width="50" height="62" viewBox="0 0 50 62" fill="none" xmlns="http://www.w3.org/2000/svg">
<path id="Vector" d="M25 41.7187C26.3021 41.7187 27.4094 41.2625 28.3219 40.35C29.2344 39.4375 29.6896 38.3312 29.6875 37.0312V33.9062H32.8125C34.1146 33.9062 35.2219 33.45 36.1344 32.5375C37.0469 31.625 37.5021 30.5187 37.5 29.2187C37.5 27.9167 37.0437 26.8094 36.1312 25.8969C35.2187 24.9844 34.1125 24.5292 32.8125 24.5312H29.6875V21.4062C29.6875 20.1042 29.2312 18.9969 28.3187 18.0844C27.4062 17.1719 26.3 16.7167 25 16.7187C23.6979 16.7187 22.5906 17.175 21.6781 18.0875C20.7656 19 20.3104 20.1062 20.3125 21.4062V24.5312H17.1875C15.8854 24.5312 14.7781 24.9875 13.8656 25.9C12.9531 26.8125 12.4979 27.9187 12.5 29.2187C12.5 30.5208 12.9562 31.6281 13.8687 32.5406C14.7812 33.4531 15.8875 33.9083 17.1875 33.9062H20.3125V37.0312C20.3125 38.3333 20.7687 39.4406 21.6812 40.3531C22.5937 41.2656 23.7 41.7208 25 41.7187ZM25 61.7969H24.2187C23.9583 61.7969 23.724 61.7448 23.5156 61.6406C16.6927 59.5052 11.0677 55.2729 6.64062 48.9437C2.21354 42.6146 0 35.6229 0 27.9688V13.2031C0 11.901 0.378125 10.7292 1.13437 9.6875C1.89062 8.64583 2.86667 7.89062 4.0625 7.42187L22.8125 0.390625C23.5417 0.130208 24.2708 0 25 0C25.7292 0 26.4583 0.130208 27.1875 0.390625L45.9375 7.42187C47.1354 7.89062 48.1125 8.64583 48.8687 9.6875C49.625 10.7292 50.0021 11.901 50 13.2031V27.9688C50 35.625 47.7865 42.6177 43.3594 48.9469C38.9323 55.276 33.3073 59.5073 26.4844 61.6406C26.224 61.7448 25.7292 61.7969 25 61.7969Z" fill="#F8F8F8"/>
</svg>
