<svg width="83" height="73" viewBox="0 0 83 73" fill="none" xmlns="http://www.w3.org/2000/svg">
<path id="Vector" d="M44.4844 3.42188V4.91895C45.3969 5.09004 46.2809 5.30391 47.0793 5.51777C48.9043 6.00254 49.9879 7.88457 49.5031 9.70957C49.0184 11.5346 47.1363 12.6182 45.3113 12.1334C43.7572 11.7199 42.3029 11.4348 41.0055 11.4205C39.9646 11.4062 38.9096 11.6629 38.2395 12.0479C37.94 12.2332 37.7975 12.39 37.7404 12.4756C37.6977 12.5469 37.6406 12.6467 37.6406 12.8748V12.9604C37.6691 12.9889 37.7689 13.1314 38.1111 13.3311C38.9381 13.8301 40.1643 14.215 42.0178 14.7711L42.1461 14.8139C43.7287 15.2844 45.8389 15.926 47.5498 16.9953C49.5031 18.2215 51.2711 20.2604 51.3139 23.3971C51.3566 26.6051 49.6885 28.9434 47.507 30.3121C46.5518 30.8967 45.5252 31.3102 44.4701 31.5668V33.0781C44.4701 34.9744 42.9445 36.5 41.0482 36.5C39.152 36.5 37.6264 34.9744 37.6264 33.0781V31.4527C36.2719 31.1248 35.0314 30.6971 33.9764 30.3406C33.677 30.2408 33.3918 30.141 33.1209 30.0555C31.3244 29.4566 30.3549 27.5176 30.9537 25.7211C31.5525 23.9246 33.4916 22.9551 35.2881 23.5539C35.6588 23.6822 36.001 23.7963 36.3289 23.9104C38.268 24.5662 39.6652 25.0367 41.1623 25.0938C42.3029 25.1365 43.3152 24.8656 43.8998 24.5092C44.1707 24.3381 44.299 24.1955 44.3561 24.0957C44.4131 24.0102 44.4844 23.8391 44.4701 23.5111V23.4826C44.4701 23.34 44.4701 23.1832 43.8998 22.8268C43.0871 22.3135 41.8609 21.9143 40.0359 21.3582L39.765 21.2727C38.2252 20.8164 36.2006 20.2033 34.5752 19.2195C32.6504 18.0646 30.7969 16.0828 30.7826 12.9318C30.7684 9.6668 32.6219 7.42832 34.732 6.17363C35.6445 5.63184 36.6283 5.26113 37.6121 5.00449V3.42188C37.6121 1.52559 39.1377 0 41.034 0C42.9303 0 44.4559 1.52559 44.4559 3.42188H44.4844ZM81.0129 47.949C82.8807 50.4869 82.3389 54.0514 79.801 55.9191L61.7506 69.2217C58.4143 71.674 54.3936 73 50.2445 73H4.5625C2.03887 73 0 70.9611 0 68.4375V59.3125C0 56.7889 2.03887 54.75 4.5625 54.75H9.80938L16.2111 49.6172C19.4477 47.0223 23.4684 45.625 27.6174 45.625H50.1875C52.7111 45.625 54.75 47.6639 54.75 50.1875C54.75 52.7111 52.7111 54.75 50.1875 54.75H38.7812C37.5266 54.75 36.5 55.7766 36.5 57.0312C36.5 58.2859 37.5266 59.3125 38.7812 59.3125H55.9762L73.0428 46.7371C75.5807 44.8693 79.1451 45.4111 81.0129 47.949Z" fill="#F8F8F8"/>
</svg>
